<svg width="202" height="179" viewBox="0 0 202 179" fill="none" xmlns="http://www.w3.org/2000/svg">
<path fill-rule="evenodd" clip-rule="evenodd" d="M113.137 0L127.279 14.1421L127.271 14.15H127.28V94.15H117V104H37.4214L14.1421 127.279L0 113.137L113.137 0ZM57.4214 84H107.28V34.1414L57.4214 84Z" fill="#FFCB05"/>
<mask id="path-2-outside-1" maskUnits="userSpaceOnUse" x="103.28" y="80" width="99" height="99" fill="black">
<rect fill="white" x="103.28" y="80" width="99" height="99"/>
<path fill-rule="evenodd" clip-rule="evenodd" d="M127.28 104V145.87L169.15 104H127.28ZM197.422 104L197.428 104.006L127.284 174.15L127.28 174.146V174.15H107.28V94.15H117V84H197.428V104H197.422Z"/>
</mask>
<path fill-rule="evenodd" clip-rule="evenodd" d="M127.28 104V145.87L169.15 104H127.28ZM197.422 104L197.428 104.006L127.284 174.15L127.28 174.146V174.15H107.28V94.15H117V84H197.428V104H197.422Z" fill="#F96900"/>
<path d="M127.28 145.87H123.28C123.28 147.488 124.255 148.946 125.749 149.566C127.244 150.185 128.964 149.842 130.108 148.698L127.28 145.87ZM127.28 104V100C125.071 100 123.28 101.791 123.28 104H127.28ZM169.15 104L171.978 106.828C173.122 105.684 173.465 103.964 172.846 102.469C172.226 100.975 170.768 100 169.15 100V104ZM197.428 104.006L200.256 106.835C201.818 105.273 201.818 102.74 200.256 101.178L197.428 104.006ZM197.422 104V100C195.804 100 194.345 100.975 193.726 102.469C193.107 103.964 193.449 105.684 194.593 106.828L197.422 104ZM127.284 174.15L124.456 176.979C126.019 178.541 128.551 178.54 130.113 176.979L127.284 174.15ZM127.28 174.146L130.108 171.317C128.964 170.173 127.243 169.831 125.749 170.451C124.254 171.07 123.28 172.528 123.28 174.146H127.28ZM127.28 174.15V178.15C129.489 178.15 131.28 176.359 131.28 174.15H127.28ZM107.28 174.15H103.28C103.28 176.359 105.071 178.15 107.28 178.15V174.15ZM107.28 94.15V90.15C105.071 90.15 103.28 91.9409 103.28 94.15H107.28ZM117 94.15V98.15C119.209 98.15 121 96.3591 121 94.15H117ZM117 84V80C114.791 80 113 81.7909 113 84H117ZM197.428 84H201.428C201.428 81.7909 199.637 80 197.428 80V84ZM197.428 104V108C199.637 108 201.428 106.209 201.428 104H197.428ZM131.28 145.87V104H123.28V145.87H131.28ZM166.322 101.172L124.452 143.042L130.108 148.698L171.978 106.828L166.322 101.172ZM169.15 100H127.28V108H169.15V100ZM200.256 101.178L200.25 101.172L194.593 106.828L194.6 106.835L200.256 101.178ZM130.113 176.979L200.256 106.835L194.6 101.178L124.456 171.322L130.113 176.979ZM124.452 176.975L124.456 176.979L130.112 171.321L130.108 171.317L124.452 176.975ZM131.28 174.15V174.146H123.28V174.15H131.28ZM107.28 178.15H127.28V170.15H107.28V178.15ZM103.28 94.15V174.15H111.28V94.15H103.28ZM117 90.15H107.28V98.15H117V90.15ZM121 94.15V84H113V94.15H121ZM117 88H197.428V80H117V88ZM193.428 84V104H201.428V84H193.428ZM197.428 100H197.422V108H197.428V100Z" fill="#FFCB05" mask="url(#path-2-outside-1)"/>
</svg>
