<svg width="206" height="183" viewBox="0 0 206 183" fill="none" xmlns="http://www.w3.org/2000/svg">
<mask id="path-1-outside-1" maskUnits="userSpaceOnUse" x="0" y="0" width="136" height="136" fill="black">
<rect fill="white" width="136" height="136"/>
<path fill-rule="evenodd" clip-rule="evenodd" d="M117.137 4L131.279 18.1421L131.271 18.15H131.28V98.15H121V108H41.4214L18.1421 131.279L4 117.137L117.137 4ZM61.4214 88H111.28V38.1414L61.4214 88Z"/>
</mask>
<path fill-rule="evenodd" clip-rule="evenodd" d="M117.137 4L131.279 18.1421L131.271 18.15H131.28V98.15H121V108H41.4214L18.1421 131.279L4 117.137L117.137 4ZM61.4214 88H111.28V38.1414L61.4214 88Z" fill="#FFCB05"/>
<path d="M131.279 18.1421L134.108 20.9706C135.67 19.4085 135.67 16.8758 134.108 15.3137L131.279 18.1421ZM117.137 4L119.966 1.17157C119.215 0.421427 118.198 -4.47122e-09 117.137 0C116.076 4.47122e-09 115.059 0.421427 114.309 1.17157L117.137 4ZM131.271 18.15L128.443 15.3216C127.299 16.4656 126.957 18.186 127.576 19.6807C128.195 21.1754 129.654 22.15 131.271 22.15V18.15ZM131.28 18.15H135.28C135.28 15.9409 133.489 14.15 131.28 14.15V18.15ZM131.28 98.15V102.15C133.489 102.15 135.28 100.359 135.28 98.15H131.28ZM121 98.15V94.15C118.791 94.15 117 95.9409 117 98.15H121ZM121 108V112C123.209 112 125 110.209 125 108H121ZM41.4214 108V104C40.3605 104 39.3431 104.421 38.5929 105.172L41.4214 108ZM18.1421 131.279L15.3137 134.108C16.0639 134.858 17.0813 135.279 18.1421 135.279C19.203 135.279 20.2204 134.858 20.9706 134.108L18.1421 131.279ZM4 117.137L1.17157 114.309C-0.390524 115.871 -0.390524 118.403 1.17157 119.966L4 117.137ZM61.4214 88L58.5929 85.1716C57.4489 86.3156 57.1067 88.036 57.7258 89.5307C58.345 91.0254 59.8035 92 61.4214 92V88ZM111.28 88V92C113.489 92 115.28 90.2091 115.28 88H111.28ZM111.28 38.1414H115.28C115.28 36.5235 114.305 35.065 112.811 34.4458C111.316 33.8267 109.596 34.1689 108.452 35.3129L111.28 38.1414ZM134.108 15.3137L119.966 1.17157L114.309 6.82843L128.451 20.9706L134.108 15.3137ZM134.1 20.9784L134.108 20.9706L128.451 15.3137L128.443 15.3216L134.1 20.9784ZM131.28 14.15H131.271V22.15H131.28V14.15ZM135.28 98.15V18.15H127.28V98.15H135.28ZM121 102.15H131.28V94.15H121V102.15ZM117 98.15V108H125V98.15H117ZM121 104H41.4214V112H121V104ZM20.9706 134.108L44.2498 110.828L38.5929 105.172L15.3137 128.451L20.9706 134.108ZM1.17157 119.966L15.3137 134.108L20.9706 128.451L6.82843 114.309L1.17157 119.966ZM114.309 1.17157L1.17157 114.309L6.82843 119.966L119.966 6.82843L114.309 1.17157ZM61.4214 92H111.28V84H61.4214V92ZM107.28 38.1414V88H115.28V38.1414H107.28ZM64.2498 90.8284L114.108 40.9698L108.452 35.3129L58.5929 85.1716L64.2498 90.8284Z" fill="#48ACF0" mask="url(#path-1-outside-1)"/>
<mask id="path-3-outside-2" maskUnits="userSpaceOnUse" x="107.28" y="84" width="99" height="99" fill="black">
<rect fill="white" x="107.28" y="84" width="99" height="99"/>
<path fill-rule="evenodd" clip-rule="evenodd" d="M131.28 108V149.87L173.15 108H131.28ZM201.422 108L201.428 108.006L131.284 178.15L131.28 178.146V178.15H111.28V98.15H121V88H201.428V108H201.422Z"/>
</mask>
<path fill-rule="evenodd" clip-rule="evenodd" d="M131.28 108V149.87L173.15 108H131.28ZM201.422 108L201.428 108.006L131.284 178.15L131.28 178.146V178.15H111.28V98.15H121V88H201.428V108H201.422Z" fill="#48ACF0"/>
<path d="M131.28 149.87H127.28C127.28 151.488 128.255 152.946 129.749 153.566C131.244 154.185 132.964 153.842 134.108 152.698L131.28 149.87ZM131.28 108V104C129.071 104 127.28 105.791 127.28 108H131.28ZM173.15 108L175.978 110.828C177.122 109.684 177.465 107.964 176.846 106.469C176.226 104.975 174.768 104 173.15 104V108ZM201.428 108.006L204.256 110.835C205.818 109.273 205.818 106.74 204.256 105.178L201.428 108.006ZM201.422 108V104C199.804 104 198.345 104.975 197.726 106.469C197.107 107.964 197.449 109.684 198.593 110.828L201.422 108ZM131.284 178.15L128.456 180.979C130.019 182.541 132.551 182.54 134.113 180.979L131.284 178.15ZM131.28 178.146L134.108 175.317C132.964 174.173 131.243 173.831 129.749 174.451C128.254 175.07 127.28 176.528 127.28 178.146H131.28ZM131.28 178.15V182.15C133.489 182.15 135.28 180.359 135.28 178.15H131.28ZM111.28 178.15H107.28C107.28 180.359 109.071 182.15 111.28 182.15V178.15ZM111.28 98.15V94.15C109.071 94.15 107.28 95.9409 107.28 98.15H111.28ZM121 98.15V102.15C123.209 102.15 125 100.359 125 98.15H121ZM121 88V84C118.791 84 117 85.7909 117 88H121ZM201.428 88H205.428C205.428 85.7909 203.637 84 201.428 84V88ZM201.428 108V112C203.637 112 205.428 110.209 205.428 108H201.428ZM135.28 149.87V108H127.28V149.87H135.28ZM170.322 105.172L128.452 147.042L134.108 152.698L175.978 110.828L170.322 105.172ZM173.15 104H131.28V112H173.15V104ZM204.256 105.178L204.25 105.172L198.593 110.828L198.6 110.835L204.256 105.178ZM134.113 180.979L204.256 110.835L198.6 105.178L128.456 175.322L134.113 180.979ZM128.452 180.975L128.456 180.979L134.112 175.321L134.108 175.317L128.452 180.975ZM135.28 178.15V178.146H127.28V178.15H135.28ZM111.28 182.15H131.28V174.15H111.28V182.15ZM107.28 98.15V178.15H115.28V98.15H107.28ZM121 94.15H111.28V102.15H121V94.15ZM125 98.15V88H117V98.15H125ZM121 92H201.428V84H121V92ZM197.428 88V108H205.428V88H197.428ZM201.428 104H201.422V112H201.428V104Z" fill="#FFCB05" mask="url(#path-3-outside-2)"/>
</svg>
